<?xml version="1.0" standalone="no"?>
<!DOCTYPE svg PUBLIC "-//W3C//DTD SVG 20010904//EN"
 "http://www.w3.org/TR/2001/REC-SVG-20010904/DTD/svg10.dtd">
<svg version="1.0" xmlns="http://www.w3.org/2000/svg"
 width="80.000000pt" height="61.000000pt" viewBox="0 0 80.000000 61.000000"
 preserveAspectRatio="xMidYMid meet">
<metadata>
Created by potrace 1.10, written by Peter Selinger 2001-2011
</metadata>
<g transform="translate(0.000000,61.000000) scale(0.100000,-0.100000)"
fill="#59a0af" stroke="none">
<path d="M391 536 l-1 -28 -70 4 c-60 3 -71 1 -76 -14 -4 -13 -16 -18 -42 -19
-20 -1 -47 -4 -59 -7 -23 -7 -23 -7 8 -39 31 -34 54 -46 27 -15 -28 32 -32 45
-12 34 11 -5 36 -12 57 -16 20 -4 37 -11 37 -16 0 -15 -50 -12 -51 3 0 6 -4 3
-8 -8 -6 -14 -23 -23 -60 -30 l-53 -10 39 -40 c57 -59 60 -73 15 -78 -20 -2
98 -4 263 -4 165 0 283 2 262 4 -21 2 -40 10 -43 17 -3 7 15 33 40 59 l46 46
-56 7 c-44 5 -57 11 -64 28 -5 11 -9 15 -9 9 -1 -7 -10 -13 -21 -13 -29 0 -24
25 5 26 14 1 38 5 53 9 l27 7 -24 -26 c-14 -14 -20 -26 -14 -26 5 0 24 15 41
34 l30 34 -30 6 c-17 3 -43 6 -59 6 -21 0 -32 7 -42 26 -9 17 -17 23 -21 15
-4 -6 -33 -11 -66 -11 -56 0 -59 1 -63 28 l-4 27 -2 -29z m149 -51 c0 -11 11
-15 43 -15 31 0 38 -3 27 -10 -20 -13 -417 -13 -425 0 -4 6 8 10 28 10 22 0
37 6 41 15 8 22 286 22 286 0z m-200 -65 c0 -5 -16 -10 -35 -10 -19 0 -35 5
-35 10 0 6 16 10 35 10 19 0 35 -4 35 -10z m100 0 c0 -5 -20 -10 -45 -10 -25
0 -45 5 -45 10 0 6 20 10 45 10 25 0 45 -4 45 -10z m90 0 c0 -5 -18 -10 -40
-10 -22 0 -40 5 -40 10 0 6 18 10 40 10 22 0 40 -4 40 -10z m-270 -30 c0 -5
-9 -10 -19 -10 -11 0 -23 5 -26 10 -4 6 5 10 19 10 14 0 26 -4 26 -10z m80 0
c0 -5 -16 -10 -35 -10 -19 0 -35 5 -35 10 0 6 16 10 35 10 19 0 35 -4 35 -10z
m100 0 c0 -5 -20 -10 -45 -10 -25 0 -45 5 -45 10 0 6 20 10 45 10 25 0 45 -4
45 -10z m90 0 c0 -5 -15 -10 -34 -10 -19 0 -38 5 -41 10 -4 6 10 10 34 10 23
0 41 -4 41 -10z m45 0 c-3 -5 -13 -10 -21 -10 -8 0 -14 5 -14 10 0 6 9 10 21
10 11 0 17 -4 14 -10z m65 -21 c0 -18 -319 -27 -437 -13 -107 13 -47 19 192
19 135 0 245 -3 245 -6z m-427 -26 c26 -3 47 -10 47 -14 0 -14 -68 -11 -76 3
-5 8 -9 6 -14 -6 -5 -15 -9 -14 -30 10 l-25 27 25 -7 c14 -3 46 -9 73 -13z
m437 -8 c-22 -24 -25 -24 -31 -8 -4 10 -8 12 -8 6 -1 -14 -71 -18 -71 -5 0 7
45 18 124 31 5 0 -1 -10 -14 -24z m-310 -5 c0 -5 -16 -10 -35 -10 -19 0 -35 5
-35 10 0 6 16 10 35 10 19 0 35 -4 35 -10z m100 0 c0 -5 -20 -10 -45 -10 -25
0 -45 5 -45 10 0 6 20 10 45 10 25 0 45 -4 45 -10z m90 0 c0 -5 -18 -10 -40
-10 -22 0 -40 5 -40 10 0 6 18 10 40 10 22 0 40 -4 40 -10z m-311 -60 c11 0
23 5 26 10 4 7 -2 9 -19 4 -20 -5 -26 -2 -26 10 0 11 9 15 30 13 24 -2 30 -7
30 -25 0 -21 -4 -23 -37 -20 -32 3 -38 7 -40 28 -3 25 -3 25 7 3 5 -13 18 -23
29 -23z m121 15 c0 -22 -4 -25 -35 -25 -31 0 -35 3 -35 25 0 22 4 25 35 25 31
0 35 -3 35 -25z m33 0 c3 -16 0 -24 -7 -22 -14 4 -21 47 -8 47 5 0 12 -11 15
-25z m40 0 c3 -20 1 -25 -12 -23 -9 2 -17 13 -19 26 -5 31 24 29 31 -3z m30 0
c3 -16 0 -24 -7 -22 -14 4 -21 47 -8 47 5 0 12 -11 15 -25z m87 0 c0 -22 -4
-25 -35 -25 -31 0 -35 3 -35 25 0 22 4 25 35 25 31 0 35 -3 35 -25z m45 -15
c17 0 25 7 28 23 4 19 4 18 6 -5 1 -26 -2 -28 -34 -28 -32 0 -35 2 -34 28 2
23 2 24 6 5 3 -16 11 -23 28 -23z m15 25 c0 -8 -7 -15 -15 -15 -8 0 -15 7 -15
15 0 8 7 15 15 15 8 0 15 -7 15 -15z"/>
<path d="M305 479 c22 -4 65 -8 95 -8 30 0 73 4 95 8 29 6 2 9 -95 9 -97 0
-124 -3 -95 -9z"/>
<path d="M195 230 c-82 -3 -133 -8 -124 -13 9 -5 69 -7 133 -5 74 2 115 -1
113 -7 -2 -6 -60 -10 -145 -10 -78 0 -142 -3 -142 -7 0 -5 65 -8 144 -8 l144
0 11 30 c5 17 9 29 8 28 -1 -1 -65 -5 -142 -8z"/>
<path d="M350 233 c0 -5 25 -8 55 -8 30 0 55 3 55 8 0 4 -25 7 -55 7 -30 0
-55 -3 -55 -7z"/>
<path d="M475 213 c5 -21 2 -22 -72 -25 -43 -2 25 -5 151 -6 126 -1 226 1 222
5 -4 4 -68 8 -143 8 -82 0 -138 4 -140 10 -2 6 42 9 122 7 79 -2 125 1 125 7
0 6 -54 11 -135 13 -136 3 -136 3 -130 -19z"/>
<path d="M368 203 c17 -2 47 -2 65 0 17 2 3 4 -33 4 -36 0 -50 -2 -32 -4z"/>
<path d="M77 134 c4 -27 2 -34 -11 -34 -9 0 -16 -4 -16 -10 0 -5 7 -7 15 -4
11 5 15 -1 15 -20 0 -14 -5 -26 -11 -26 -5 0 -7 -4 -4 -10 8 -13 55 -13 55 0
0 6 -4 10 -10 10 -5 0 -10 11 -10 25 0 21 5 25 30 25 23 0 31 5 36 26 8 33 -3
43 -53 48 l-41 3 5 -33z m58 9 c16 -16 16 -17 -1 -30 -27 -20 -34 -16 -34 17
0 34 11 38 35 13z"/>
<path d="M212 154 c-62 -43 -5 -157 63 -126 21 10 25 18 25 54 0 24 -6 50 -13
59 -17 23 -53 29 -75 13z m57 -28 c19 -48 -11 -103 -42 -78 -13 11 -22 76 -13
90 11 18 47 10 55 -12z"/>
<path d="M350 160 c-24 -5 -25 -9 -26 -72 l0 -68 30 0 c17 0 26 4 20 8 -6 4
-14 20 -18 35 -6 24 -4 28 11 25 10 -2 21 -17 26 -39 7 -32 11 -35 34 -31 21
4 24 7 12 16 -8 6 -22 21 -33 33 -18 22 -18 23 5 42 19 15 21 21 11 34 -16 19
-40 25 -72 17z m47 -26 c6 -16 -11 -34 -33 -34 -7 0 -11 11 -10 25 1 29 33 35
43 9z"/>
<path d="M503 162 c-50 -3 -66 -13 -43 -27 6 -3 10 -1 10 5 0 7 6 10 12 8 12
-4 13 -72 2 -110 -4 -15 1 -18 27 -18 30 0 31 1 16 18 -11 12 -17 36 -17 65 0
48 7 55 40 37 14 -7 18 -6 16 5 -3 20 -4 20 -63 17z"/>
<path d="M630 148 c0 -10 -6 -21 -14 -24 -9 -3 -14 -18 -14 -35 1 -17 -4 -35
-10 -41 -20 -20 -13 -28 21 -27 17 0 26 3 20 6 -7 2 -13 16 -13 30 0 20 3 23
13 14 8 -6 17 -8 20 -4 4 3 0 11 -8 17 -9 7 -12 19 -8 35 5 21 8 18 24 -24 10
-26 15 -53 12 -61 -4 -10 4 -14 28 -14 29 1 32 3 19 13 -15 13 -40 52 -40 63
0 3 7 3 16 0 10 -4 14 -1 11 6 -2 7 -11 12 -20 12 -9 -1 -15 2 -12 6 3 5 0 12
-6 16 -8 5 -8 9 1 14 7 5 2 9 -14 12 -21 4 -26 1 -26 -14z"/>
</g>
</svg>
