<?xml version="1.0" standalone="no"?>
<!DOCTYPE svg PUBLIC "-//W3C//DTD SVG 20010904//EN"
 "http://www.w3.org/TR/2001/REC-SVG-20010904/DTD/svg10.dtd">
<svg version="1.0" xmlns="http://www.w3.org/2000/svg"
 width="180.000000pt" height="137.000000pt" viewBox="0 0 180.000000 137.000000"
 preserveAspectRatio="xMidYMid meet">
<metadata>
Created by potrace 1.10, written by Peter Selinger 2001-2011
</metadata>
<g transform="translate(0.000000,137.000000) scale(0.100000,-0.100000)"
fill="#47a3b7" stroke="none">
<path d="M882 1195 l4 -65 -67 0 c-90 0 -222 19 -231 33 -4 7 -11 -1 -18 -18
-23 -66 -24 -67 -70 -70 -192 -14 -230 -18 -230 -26 0 -5 7 -9 15 -9 8 0 15
-4 15 -8 0 -14 103 -124 132 -142 l29 -17 -73 -7 c-156 -14 -188 -19 -188 -27
0 -5 9 -9 20 -9 11 0 20 -4 20 -8 0 -16 113 -134 138 -143 20 -8 24 -15 20
-44 -2 -19 0 -35 4 -35 4 0 8 -4 8 -10 0 -6 -33 -10 -80 -10 -47 0 -80 -4 -80
-10 0 -7 225 -10 655 -10 430 0 655 3 655 10 0 6 -33 10 -79 10 -86 0 -91 4
-91 61 0 22 6 32 23 38 24 9 137 127 137 143 0 4 9 8 20 8 11 0 20 4 20 9 0 8
-42 15 -183 27 l-78 7 29 17 c29 18 132 128 132 142 0 4 7 8 15 8 8 0 15 4 15
9 0 5 -42 12 -92 16 -51 3 -113 8 -137 10 -43 3 -46 5 -66 51 -12 27 -23 43
-26 37 -5 -15 -124 -32 -226 -33 l-73 0 0 65 c0 41 -4 65 -11 65 -8 0 -10 -21
-7 -65z m13 -70 c121 0 241 3 266 7 l46 7 12 -39 11 -38 111 -8 c62 -4 105
-10 98 -14 -8 -4 -50 -16 -94 -26 -70 -17 -125 -19 -450 -19 -325 0 -380 2
-450 19 -44 10 -86 22 -94 26 -7 4 36 10 98 14 l111 8 11 38 12 39 46 -7 c25
-4 145 -7 266 -7z m-469 -125 c43 -11 96 -20 117 -20 34 0 37 -2 37 -30 0 -30
-1 -30 -55 -30 -54 0 -55 1 -49 25 4 15 2 25 -5 25 -6 0 -11 -16 -11 -35 0
-51 -20 -45 -84 28 -51 57 -75 95 -43 68 8 -6 49 -20 93 -31z m1023 2 c-99
-114 -119 -125 -119 -67 0 19 -4 35 -10 35 -5 0 -10 -11 -10 -25 0 -23 -3 -25
-50 -25 -49 0 -50 1 -50 30 0 27 3 30 33 30 44 0 161 26 195 43 37 18 40 12
11 -21z m-679 -52 l0 -30 -89 0 -90 0 4 28 c2 15 4 28 4 30 1 1 39 2 86 2 l85
0 0 -30z m230 0 l0 -30 -105 0 -105 0 0 30 0 30 105 0 105 0 0 -30z m196 -2
l3 -28 -90 0 -89 0 0 30 0 31 86 -3 c87 -3 87 -3 90 -30z m-616 -69 c0 -28 -3
-31 -22 -25 -13 3 -32 6 -43 6 -30 0 -49 16 -42 34 5 12 20 16 57 16 49 0 50
0 50 -31z m190 0 l0 -30 -87 3 c-84 3 -87 4 -86 26 0 12 1 24 2 26 1 2 39 4
86 5 l85 1 0 -31z m230 1 l0 -30 -105 0 -105 0 0 29 0 29 105 1 105 2 0 -31z
m194 -1 c0 -23 -2 -24 -87 -27 l-87 -3 0 28 0 28 87 -1 c85 -1 87 -2 87 -25z
m124 9 c3 -17 -7 -22 -70 -33 -37 -6 -38 -5 -38 25 l0 31 52 -3 c40 -2 54 -7
56 -20z m-423 -53 c252 0 397 4 410 10 14 8 51 8 115 2 l95 -10 -45 -13 c-101
-30 -169 -35 -574 -35 -407 0 -473 4 -576 35 l-45 13 95 10 c64 6 101 6 115
-2 13 -6 158 -10 410 -10z m-588 -25 c28 -11 101 -25 162 -32 111 -12 111 -12
111 -39 l0 -26 -85 -1 -85 -1 0 31 c0 17 -3 28 -7 24 -4 -4 -6 -23 -4 -42 3
-39 -6 -42 -42 -14 -24 19 -113 120 -105 120 1 0 26 -9 55 -20z m1183 -40
c-48 -55 -77 -80 -95 -80 -4 0 -5 16 -4 34 2 19 0 38 -4 42 -4 4 -7 -7 -7 -24
l0 -32 -85 0 -85 0 0 28 0 28 110 12 c61 7 132 21 158 31 26 11 51 19 55 20 5
1 -15 -26 -43 -59z m-720 -29 l0 -29 -82 0 c-45 -1 -85 1 -88 3 -4 3 -5 16 -2
30 4 24 6 25 88 25 l84 0 0 -29z m230 -1 l0 -30 -105 0 -105 0 0 30 0 30 105
0 105 0 0 -30z m194 0 c0 -25 -1 -25 -87 -28 l-87 -3 0 31 0 31 87 -3 c86 -3
87 -3 87 -28z m-754 -85 l0 -45 55 0 55 0 0 45 c0 33 4 45 15 45 11 0 15 -12
15 -44 0 -24 3 -51 6 -60 5 -14 -5 -16 -79 -16 -95 0 -97 1 -97 76 0 32 4 44
15 44 11 0 15 -12 15 -45z m90 8 c0 -37 -1 -38 -36 -37 -35 1 -37 3 -38 38 -1
35 0 36 37 36 36 0 37 -1 37 -37z m240 -7 c0 -24 3 -51 6 -60 5 -14 -6 -16
-86 -16 -58 0 -89 4 -85 10 3 6 3 10 -2 10 -4 0 -8 23 -8 50 l0 50 87 0 88 0
0 -44z m70 0 c0 -24 3 -51 6 -60 5 -12 0 -16 -19 -16 -29 0 -37 16 -37 76 0
40 2 44 25 44 23 0 25 -4 25 -44z m90 0 c0 -24 3 -51 6 -60 5 -13 -1 -16 -29
-16 -40 0 -47 11 -47 76 0 44 0 44 35 44 35 0 35 0 35 -44z m70 0 c0 -24 3
-51 6 -60 5 -12 0 -16 -19 -16 -29 0 -37 16 -37 76 0 40 2 44 25 44 23 0 25
-4 25 -44z m192 -6 c-3 -32 0 -50 7 -50 6 0 11 -4 11 -10 0 -6 -36 -10 -89
-10 -100 0 -101 1 -101 76 l0 44 88 0 87 0 -3 -50z m48 5 l0 -45 55 0 55 0 0
45 c0 33 4 45 15 45 11 0 15 -12 15 -44 0 -24 3 -51 6 -60 5 -14 -5 -16 -79
-16 -95 0 -97 1 -97 76 0 32 4 44 15 44 11 0 15 -12 15 -45z m94 9 c-1 -35 -3
-37 -38 -39 -36 -2 -36 -1 -36 37 0 37 1 38 38 38 36 0 37 -1 36 -36z"/>
<path d="M600 1099 c0 -16 100 -24 295 -24 195 0 295 8 295 24 0 4 -21 4 -47
0 -27 -4 -138 -8 -248 -8 -110 0 -221 4 -247 8 -27 4 -48 4 -48 0z"/>
<path d="M737 520 c-5 -20 -12 -21 -292 -20 -158 1 -290 -1 -293 -4 -3 -3 124
-6 281 -6 158 0 287 -2 287 -5 0 -2 -5 -16 -12 -30 l-11 -25 -318 0 c-244 0
-318 -3 -322 -12 -3 -10 64 -12 326 -8 l331 5 23 60 c26 68 26 65 14 65 -5 0
-11 -9 -14 -20z"/>
<path d="M843 533 c37 -2 96 -2 130 0 34 2 4 3 -68 3 -71 0 -99 -1 -62 -3z"/>
<path d="M1050 537 c0 -2 11 -30 24 -63 l24 -59 325 -5 c257 -4 323 -2 320 8
-4 9 -77 12 -317 12 l-313 0 -11 25 c-7 14 -12 28 -12 30 0 3 129 5 287 5 157
0 284 3 281 6 -3 3 -135 5 -293 4 -280 -1 -287 0 -292 20 -4 16 -23 30 -23 17z"/>
<path d="M770 498 c0 -5 61 -8 135 -8 74 0 135 3 135 8 0 4 -61 7 -135 7 -74
0 -135 -3 -135 -7z"/>
<path d="M760 460 c0 -6 55 -10 145 -10 90 0 145 4 145 10 0 6 -55 10 -145 10
-90 0 -145 -4 -145 -10z"/>
<path d="M740 420 c0 -6 62 -10 165 -10 103 0 165 4 165 10 0 6 -62 10 -165
10 -103 0 -165 -4 -165 -10z"/>
<path d="M148 360 c19 -8 22 -17 22 -70 0 -52 -2 -60 -19 -60 -10 0 -24 -7
-31 -15 -11 -13 -8 -14 16 -11 16 2 22 1 14 -1 -30 -10 -36 -26 -7 -19 27 6
27 6 27 -42 0 -41 -4 -51 -22 -60 -19 -9 -13 -11 42 -13 l65 -2 -55 -7 -55 -7
69 -1 69 -2 -21 23 c-16 17 -22 36 -22 70 l0 47 49 0 c68 0 111 35 111 90 0
21 -6 43 -15 50 -8 7 -15 9 -15 5 0 -5 -9 0 -21 11 -17 16 -39 19 -123 21 -71
2 -94 0 -78 -7z m160 -26 c43 -30 22 -89 -35 -100 l-33 -6 0 47 0 48 35 -6
c21 -3 33 -2 30 4 -4 5 -21 9 -40 9 -34 0 -34 0 -38 -52 l-3 -53 -2 63 -2 62
33 0 c18 0 43 -7 55 -16z m82 -45 c0 -61 -39 -89 -122 -89 l-40 0 4 -59 c1
-33 0 -57 -4 -54 -5 2 -8 31 -8 64 l0 59 40 0 c84 0 130 38 116 97 -5 16 -3
22 4 18 5 -3 10 -20 10 -36z m-180 -71 c0 -5 -6 -8 -14 -8 -9 0 -12 7 -9 21 4
16 8 17 14 7 5 -7 9 -16 9 -20z m-13 -70 c-3 -8 -6 -5 -6 6 -1 11 2 17 5 13 3
-3 4 -12 1 -19z"/>
<path d="M479 354 c-43 -28 -59 -65 -59 -137 0 -50 5 -70 21 -91 63 -80 170
-71 216 18 22 43 13 137 -16 177 -13 17 -18 30 -11 27 48 -16 67 -164 30 -225
-33 -55 -108 -79 -163 -52 -21 10 -21 10 -3 -5 25 -20 88 -20 126 -1 57 30 91
126 71 203 -13 48 -45 90 -69 92 -9 0 -39 3 -67 5 -36 4 -57 1 -76 -11z m118
-31 c23 -34 25 -157 4 -197 -17 -31 -55 -44 -76 -26 -8 7 -15 9 -15 4 -1 -5
-10 2 -20 15 -38 45 -22 207 22 224 35 14 68 6 85 -20z"/>
<path d="M517 328 c-37 -29 -49 -135 -22 -193 l14 -30 -5 30 c-3 17 -8 38 -11
47 -8 32 9 110 29 130 14 14 27 18 46 14 20 -5 23 -4 12 4 -20 13 -43 13 -63
-2z"/>
<path d="M750 355 c-28 -10 -32 -14 -17 -20 13 -6 17 -19 17 -66 0 -52 -2 -59
-20 -59 -28 0 -25 -20 3 -21 21 0 21 -1 2 -9 -17 -7 -17 -9 -2 -9 23 -1 23
-57 0 -83 -15 -17 -14 -18 43 -20 l59 -1 -55 -7 -55 -7 63 -1 c63 -2 75 5 47
28 -21 18 -20 96 2 104 23 9 28 1 48 -79 10 -38 21 -75 24 -81 4 -7 24 -3 58
13 l53 24 -30 26 c-43 36 -89 115 -70 121 26 9 60 51 60 75 0 21 -29 74 -30
54 0 -5 -12 1 -26 12 -31 25 -117 28 -174 6z m140 -25 c11 -11 20 -25 20 -31
0 -24 -24 -52 -55 -65 -60 -25 -65 -21 -65 44 0 32 3 62 7 65 14 15 74 6 93
-13z m80 -44 c0 -10 -16 -34 -35 -52 l-36 -33 20 -38 c10 -21 33 -51 50 -67
l31 -29 -42 -19 c-22 -10 -43 -16 -46 -14 -2 3 8 11 24 18 16 6 31 13 33 15 2
1 -9 16 -23 34 -43 50 -71 112 -55 118 8 2 27 17 42 33 23 23 28 34 23 56 -5
20 -4 23 4 12 5 -8 10 -23 10 -34z m-190 -76 c0 -5 -5 -10 -11 -10 -5 0 -7 5
-4 10 3 6 8 10 11 10 2 0 4 -4 4 -10z m57 -13 c-27 -11 -28 -14 -25 -63 2 -38
0 -50 -9 -47 -8 3 -13 25 -13 58 0 48 3 54 23 58 41 8 52 5 24 -6z m93 -112
c0 -19 -6 -19 -14 0 -3 8 -1 15 4 15 6 0 10 -7 10 -15z"/>
<path d="M811 336 c2 -2 22 -6 44 -10 29 -5 36 -4 25 3 -13 10 -79 16 -69 7z"/>
<path d="M813 280 c0 -25 2 -35 4 -22 2 12 2 32 0 45 -2 12 -4 2 -4 -23z"/>
<path d="M1000 365 c0 -11 26 -61 35 -67 5 -4 18 2 28 13 10 10 24 19 32 19
12 0 15 -21 15 -120 0 -103 -2 -120 -17 -129 -14 -8 -3 -11 47 -12 l65 -2 -60
-7 -60 -7 69 -1 69 -2 -21 23 c-20 21 -22 34 -22 141 l0 118 27 -7 c16 -4 28
-7 29 -8 1 -1 6 -10 11 -21 9 -16 12 -13 30 23 17 33 18 41 6 46 -17 6 -283 7
-283 0z m266 -42 c-8 -15 -15 -22 -16 -15 0 17 20 55 27 49 2 -3 -2 -18 -11
-34z m-180 17 c-16 -5 -33 -15 -37 -22 -7 -10 -9 -9 -9 4 0 19 14 26 50 26 24
0 23 0 -4 -8z m138 2 c3 -5 -9 -6 -25 -4 l-30 4 3 -130 c2 -72 0 -128 -4 -125
-5 2 -8 62 -8 134 l0 129 29 0 c17 0 32 -4 35 -8z"/>
<path d="M1412 357 c16 -13 17 -17 1 -55 -11 -30 -19 -39 -28 -32 -8 6 -16 0
-28 -19 -16 -28 -16 -29 3 -34 19 -5 19 -6 -2 -57 -11 -28 -32 -60 -46 -70
l-25 -20 64 -2 64 -1 -60 -7 -60 -7 68 -1 67 -2 -16 25 c-12 18 -15 38 -11 68
4 32 3 38 -5 24 -5 -10 -8 -34 -6 -53 5 -39 3 -41 -11 -16 -7 13 -6 32 3 62
l13 43 23 -34 c40 -57 44 -58 63 -32 10 12 15 23 11 23 -4 0 -13 -8 -20 -18
-7 -9 -14 -12 -14 -6 0 6 8 18 18 28 18 15 20 14 35 -25 16 -39 16 -43 -1 -55
-15 -12 -7 -14 53 -15 l70 -2 -65 -7 -65 -7 74 -1 c74 -2 74 -2 56 18 -10 12
-25 18 -32 15 -14 -5 -44 50 -58 108 -7 25 -5 27 21 26 24 -1 25 -2 7 -6 -13
-2 -23 -6 -23 -8 0 -11 44 -115 47 -112 2 3 -6 28 -17 57 l-21 52 26 -6 c29
-7 30 -5 10 34 -14 26 -35 33 -51 17 -14 -14 -20 -6 -38 44 -15 41 -16 53 -6
62 10 10 12 8 7 -6 -6 -17 21 -102 30 -93 2 2 -3 21 -12 42 -10 25 -12 41 -5
48 19 19 10 23 -57 24 -59 2 -66 0 -51 -11z m58 -32 c0 -8 -2 -15 -4 -15 -2 0
-6 7 -10 15 -3 8 -1 15 4 15 6 0 10 -7 10 -15z m5 -124 c-5 -12 -10 -11 -26 6
-17 17 -19 24 -10 41 6 11 11 27 10 34 0 7 -7 -2 -15 -20 -13 -31 -13 -35 6
-63 27 -36 17 -38 -14 -2 l-23 26 21 49 20 49 18 -53 c10 -29 16 -59 13 -67z
m42 1 c2 -23 1 -24 -7 -7 -11 24 -13 51 -3 41 4 -4 8 -19 10 -34z"/>
</g>
</svg>
